# xmcd
#
# Track frame offsets: 
#        150
#        2127
#        13807
#        15192
#        19926
#        21301
#        35825
#        37205
#        49486
#        54034
#        67677
#        69058
#        81321
#        82729
#        84195
#        105241
#        107455
#        130680
#
# Disc length: 1821 seconds
#
# Revision: 0
# Processed by: cddbd v1.5.2PL0 Copyright (c) Steve Scherf et al.
# Submitted via: ExactAudioCopy v0.99pb4
#
DISCID=c8071b12
DTITLE=Rebel Son - Outhouse Of Representatives
DYEAR=2010
DGENRE=Country
TTITLE0=Bad Sound
TTITLE1=My New Plan
TTITLE2=Takin' Me A Stinky
TTITLE3=Sweet As A Sugar Cane
TTITLE4=The Worst Piece
TTITLE5=Road Whores
TTITLE6=Fall Down
TTITLE7=Ragin' Fit
TTITLE8=To Get To Lick You
TTITLE9=Pour Me A Shot
TTITLE10=I'm Comin' Over
TTITLE11=Pinned Down
TTITLE12=I Sure Hope I Make It
TTITLE13=I Know Somethin'
TTITLE14=The Greatest Place On Earth
TTITLE15=I Sure Did Enjoy It
TTITLE16=The Underground Poetic Justice System
TTITLE17=Our Goal
EXTD=
EXTT0=
EXTT1=
EXTT2=
EXTT3=
EXTT4=
EXTT5=
EXTT6=
EXTT7=
EXTT8=
EXTT9=
EXTT10=
EXTT11=
EXTT12=
EXTT13=
EXTT14=
EXTT15=
EXTT16=
EXTT17=
PLAYORDER=
